<svg width="33" height="22" viewBox="0 0 33 22" fill="none" xmlns="http://www.w3.org/2000/svg">
    <ellipse opacity="0.3" cx="15.8378" cy="8.57165" rx="0.485294" ry="0.485714" fill="white" />
    <ellipse opacity="0.6" cx="8.80118" cy="1.04302" rx="0.727941" ry="0.728571" fill="white" />
    <ellipse cx="7.83048" cy="6.87115" rx="0.727941" ry="0.728571" fill="white" />
    <ellipse cx="1.76453" cy="12.9431" rx="0.970588" ry="0.971429" fill="white" />
    <ellipse opacity="0.1" cx="8.55854" cy="20.7142" rx="0.485294" ry="0.485714" fill="white" />
    <ellipse cx="13.4121" cy="14.8861" rx="0.485294" ry="0.485714" fill="white" />
    <ellipse opacity="0.3" cx="21.1767" cy="14.8861" rx="0.485294" ry="0.485714" fill="white" />
    <ellipse cx="17.2938" cy="1.28588" rx="0.970588" ry="0.971429" fill="white" />
    <ellipse cx="32.5805" cy="10.7575" rx="0.242647" ry="0.242857" fill="white" />
    <ellipse cx="28.2133" cy="5.90045" rx="0.727941" ry="0.728571" fill="white" />
    <ellipse cx="26.9999" cy="14.3998" rx="0.485294" ry="0.485714" fill="white" />
    <ellipse opacity="0.4" cx="21.6621" cy="9.54333" rx="0.485294" ry="0.485714" fill="white" />
    <ellipse opacity="0.4" cx="7.58783" cy="14.8861" rx="0.485294" ry="0.485714" fill="white" />
    <ellipse cx="16.0805" cy="20.9577" rx="0.242647" ry="0.242857" fill="white" />
    <ellipse cx="24.0878" cy="3.71423" rx="0.485294" ry="0.485714" fill="white" />
</svg>
